<svg width="27" height="28" viewBox="0 0 27 28" fill="none" xmlns="http://www.w3.org/2000/svg">
<rect y="0.5" width="27" height="27" rx="13.5" fill="#EBF1F9"/>
<path d="M19.3333 19.8333H7.66667V8.16667H19.3333M19.3333 6.5H7.66667C7.22464 6.5 6.80072 6.67559 6.48816 6.98816C6.17559 7.30072 6 7.72464 6 8.16667V19.8333C6 20.2754 6.17559 20.6993 6.48816 21.0118C6.80072 21.3244 7.22464 21.5 7.66667 21.5H19.3333C19.7754 21.5 20.1993 21.3244 20.5118 21.0118C20.8244 20.6993 21 20.2754 21 19.8333V8.16667C21 7.72464 20.8244 7.30072 20.5118 6.98816C20.1993 6.67559 19.7754 6.5 19.3333 6.5ZM17.25 17.5417C17.25 16.2917 14.75 15.6667 13.5 15.6667C12.25 15.6667 9.75 16.2917 9.75 17.5417V18.1667H17.25M13.5 14.2083C13.9973 14.2083 14.4742 14.0108 14.8258 13.6592C15.1775 13.3075 15.375 12.8306 15.375 12.3333C15.375 11.8361 15.1775 11.3591 14.8258 11.0075C14.4742 10.6559 13.9973 10.4583 13.5 10.4583C13.0027 10.4583 12.5258 10.6559 12.1742 11.0075C11.8225 11.3591 11.625 11.8361 11.625 12.3333C11.625 12.8306 11.8225 13.3075 12.1742 13.6592C12.5258 14.0108 13.0027 14.2083 13.5 14.2083Z" fill="#1554AF"/>
</svg>
