<svg width="29" height="28" viewBox="0 0 29 28" fill="none" xmlns="http://www.w3.org/2000/svg">
<rect x="0.583328" y="0.275116" width="27.8333" height="27.4498" rx="13.7249" fill="#EBF1F9"/>
<path d="M14.5 6.27512C13.4604 6.27512 12.4309 6.47989 11.4704 6.87774C10.5099 7.27559 9.6372 7.85872 8.90207 8.59385C7.4174 10.0785 6.58333 12.0922 6.58333 14.1918C6.58333 17.691 8.85541 20.6597 11.9983 21.7126C12.3942 21.776 12.5208 21.5305 12.5208 21.3168V19.9789C10.3279 20.4539 9.86083 18.918 9.86083 18.918C9.49666 17.9997 8.98208 17.7543 8.98208 17.7543C8.26166 17.2635 9.03749 17.2793 9.03749 17.2793C9.82916 17.3347 10.2487 18.0947 10.2487 18.0947C10.9375 19.298 12.1012 18.9418 12.5525 18.7518C12.6237 18.2372 12.8296 17.8889 13.0512 17.691C11.2937 17.493 9.44916 16.8122 9.44916 13.7959C9.44916 12.9172 9.74999 12.2126 10.2646 11.6505C10.1854 11.4526 9.90833 10.6293 10.3437 9.56053C10.3437 9.56053 11.0087 9.34678 12.5208 10.368C13.1462 10.1939 13.8271 10.1068 14.5 10.1068C15.1729 10.1068 15.8537 10.1939 16.4792 10.368C17.9912 9.34678 18.6562 9.56053 18.6562 9.56053C19.0917 10.6293 18.8146 11.4526 18.7354 11.6505C19.25 12.2126 19.5508 12.9172 19.5508 13.7959C19.5508 16.8201 17.6983 17.4851 15.9329 17.683C16.2179 17.9285 16.4792 18.4114 16.4792 19.1476V21.3168C16.4792 21.5305 16.6058 21.7839 17.0096 21.7126C20.1525 20.6518 22.4167 17.691 22.4167 14.1918C22.4167 13.1522 22.2119 12.1227 21.814 11.1622C21.4162 10.2017 20.8331 9.32898 20.0979 8.59385C19.3628 7.85872 18.4901 7.27559 17.5296 6.87774C16.5691 6.47989 15.5396 6.27512 14.5 6.27512Z" fill="#1554AF"/>
</svg>
