<svg width="29" height="28" viewBox="0 0 29 28" fill="none" xmlns="http://www.w3.org/2000/svg">
<rect x="0.583328" y="0.083334" width="27.8333" height="27.8333" rx="13.9167" fill="#EBF1F9"/>
<path d="M11.175 6.08333H17.825C20.3583 6.08333 22.4167 8.14167 22.4167 10.675V17.325C22.4167 18.5428 21.9329 19.7107 21.0718 20.5718C20.2107 21.4329 19.0428 21.9167 17.825 21.9167H11.175C8.64166 21.9167 6.58333 19.8583 6.58333 17.325V10.675C6.58333 9.45721 7.06709 8.28931 7.9282 7.4282C8.7893 6.5671 9.95721 6.08333 11.175 6.08333ZM11.0167 7.66667C10.2608 7.66667 9.53589 7.96693 9.00141 8.50141C8.46693 9.03589 8.16666 9.7608 8.16666 10.5167V17.4833C8.16666 19.0588 9.44124 20.3333 11.0167 20.3333H17.9833C18.7392 20.3333 19.4641 20.0331 19.9986 19.4986C20.5331 18.9641 20.8333 18.2392 20.8333 17.4833V10.5167C20.8333 8.94125 19.5587 7.66667 17.9833 7.66667H11.0167ZM18.6562 8.85417C18.9187 8.85417 19.1704 8.95843 19.356 9.14401C19.5416 9.32959 19.6458 9.5813 19.6458 9.84375C19.6458 10.1062 19.5416 10.3579 19.356 10.5435C19.1704 10.7291 18.9187 10.8333 18.6562 10.8333C18.3938 10.8333 18.1421 10.7291 17.9565 10.5435C17.7709 10.3579 17.6667 10.1062 17.6667 9.84375C17.6667 9.5813 17.7709 9.32959 17.9565 9.14401C18.1421 8.95843 18.3938 8.85417 18.6562 8.85417ZM14.5 10.0417C15.5498 10.0417 16.5566 10.4587 17.299 11.201C18.0413 11.9434 18.4583 12.9502 18.4583 14C18.4583 15.0498 18.0413 16.0566 17.299 16.799C16.5566 17.5413 15.5498 17.9583 14.5 17.9583C13.4502 17.9583 12.4434 17.5413 11.701 16.799C10.9587 16.0566 10.5417 15.0498 10.5417 14C10.5417 12.9502 10.9587 11.9434 11.701 11.201C12.4434 10.4587 13.4502 10.0417 14.5 10.0417ZM14.5 11.625C13.8701 11.625 13.266 11.8752 12.8206 12.3206C12.3752 12.766 12.125 13.3701 12.125 14C12.125 14.6299 12.3752 15.234 12.8206 15.6794C13.266 16.1248 13.8701 16.375 14.5 16.375C15.1299 16.375 15.734 16.1248 16.1794 15.6794C16.6248 15.234 16.875 14.6299 16.875 14C16.875 13.3701 16.6248 12.766 16.1794 12.3206C15.734 11.8752 15.1299 11.625 14.5 11.625Z" fill="#1554AF"/>
</svg>
