<svg width="27" height="28" viewBox="0 0 27 28" fill="none" xmlns="http://www.w3.org/2000/svg">
<rect x="0.375" y="0.875" width="26.25" height="26.25" rx="13.125" fill="#EBF1F9"/>
<path d="M19.0417 6.875C19.4616 6.875 19.8643 7.04181 20.1613 7.33875C20.4582 7.63568 20.625 8.03841 20.625 8.45833V19.5417C20.625 19.9616 20.4582 20.3643 20.1613 20.6613C19.8643 20.9582 19.4616 21.125 19.0417 21.125H7.95833C7.53841 21.125 7.13568 20.9582 6.83875 20.6613C6.54181 20.3643 6.375 19.9616 6.375 19.5417V8.45833C6.375 8.03841 6.54181 7.63568 6.83875 7.33875C7.13568 7.04181 7.53841 6.875 7.95833 6.875H19.0417ZM18.6458 19.1458V14.95C18.6458 14.2655 18.3739 13.6091 17.8899 13.1251C17.4059 12.6411 16.7495 12.3692 16.065 12.3692C15.3921 12.3692 14.6083 12.7808 14.2283 13.3983V12.5196H12.0196V19.1458H14.2283V15.2429C14.2283 14.6333 14.7192 14.1346 15.3288 14.1346C15.6227 14.1346 15.9046 14.2514 16.1125 14.4592C16.3203 14.6671 16.4371 14.949 16.4371 15.2429V19.1458H18.6458ZM9.44667 11.2767C9.7994 11.2767 10.1377 11.1365 10.3871 10.8871C10.6365 10.6377 10.7767 10.2994 10.7767 9.94667C10.7767 9.21042 10.1829 8.60875 9.44667 8.60875C9.09183 8.60875 8.75152 8.74971 8.50062 9.00062C8.24971 9.25152 8.10875 9.59183 8.10875 9.94667C8.10875 10.6829 8.71042 11.2767 9.44667 11.2767ZM10.5471 19.1458V12.5196H8.35417V19.1458H10.5471Z" fill="#1554AF"/>
</svg>
