<svg width="25" height="26" viewBox="0 0 25 26" fill="none" xmlns="http://www.w3.org/2000/svg">
<path d="M6.25 11.4375C5.8356 11.4375 5.43817 11.6021 5.14515 11.8951C4.85212 12.1882 4.6875 12.5856 4.6875 13C4.6875 13.4144 4.85212 13.8118 5.14515 14.1049C5.43817 14.3979 5.8356 14.5625 6.25 14.5625C6.6644 14.5625 7.06183 14.3979 7.35485 14.1049C7.64788 13.8118 7.8125 13.4144 7.8125 13C7.8125 12.5856 7.64788 12.1882 7.35485 11.8951C7.06183 11.6021 6.6644 11.4375 6.25 11.4375ZM10.9375 13C10.9375 12.5856 11.1021 12.1882 11.3951 11.8951C11.6882 11.6021 12.0856 11.4375 12.5 11.4375C12.9144 11.4375 13.3118 11.6021 13.6049 11.8951C13.8979 12.1882 14.0625 12.5856 14.0625 13C14.0625 13.4144 13.8979 13.8118 13.6049 14.1049C13.3118 14.3979 12.9144 14.5625 12.5 14.5625C12.0856 14.5625 11.6882 14.3979 11.3951 14.1049C11.1021 13.8118 10.9375 13.4144 10.9375 13ZM17.1875 13C17.1875 12.5856 17.3521 12.1882 17.6451 11.8951C17.9382 11.6021 18.3356 11.4375 18.75 11.4375C19.1644 11.4375 19.5618 11.6021 19.8549 11.8951C20.1479 12.1882 20.3125 12.5856 20.3125 13C20.3125 13.4144 20.1479 13.8118 19.8549 14.1049C19.5618 14.3979 19.1644 14.5625 18.75 14.5625C18.3356 14.5625 17.9382 14.3979 17.6451 14.1049C17.3521 13.8118 17.1875 13.4144 17.1875 13Z" fill="#1554AF"/>
</svg>
